<svg id="visual" viewBox="0 0 960 540" width="960" height="540" xmlns="http://www.w3.org/2000/svg" xmlns:xlink="http://www.w3.org/1999/xlink" version="1.1"><rect x="0" y="0" width="960" height="540" fill="#001220"></rect><defs><linearGradient id="grad1_0" x1="43.8%" y1="0%" x2="100%" y2="100%"><stop offset="14.444444444444446%" stop-color="#fbae3c" stop-opacity="1"></stop><stop offset="85.55555555555554%" stop-color="#fbae3c" stop-opacity="1"></stop></linearGradient></defs><defs><linearGradient id="grad1_1" x1="43.8%" y1="0%" x2="100%" y2="100%"><stop offset="14.444444444444446%" stop-color="#fbae3c" stop-opacity="1"></stop><stop offset="85.55555555555554%" stop-color="#f48350" stop-opacity="1"></stop></linearGradient></defs><defs><linearGradient id="grad1_2" x1="43.8%" y1="0%" x2="100%" y2="100%"><stop offset="14.444444444444446%" stop-color="#d96162" stop-opacity="1"></stop><stop offset="85.55555555555554%" stop-color="#f48350" stop-opacity="1"></stop></linearGradient></defs><defs><linearGradient id="grad1_3" x1="43.8%" y1="0%" x2="100%" y2="100%"><stop offset="14.444444444444446%" stop-color="#d96162" stop-opacity="1"></stop><stop offset="85.55555555555554%" stop-color="#af4b6d" stop-opacity="1"></stop></linearGradient></defs><defs><linearGradient id="grad1_4" x1="43.8%" y1="0%" x2="100%" y2="100%"><stop offset="14.444444444444446%" stop-color="#7c3e6b" stop-opacity="1"></stop><stop offset="85.55555555555554%" stop-color="#af4b6d" stop-opacity="1"></stop></linearGradient></defs><defs><linearGradient id="grad1_5" x1="43.8%" y1="0%" x2="100%" y2="100%"><stop offset="14.444444444444446%" stop-color="#7c3e6b" stop-opacity="1"></stop><stop offset="85.55555555555554%" stop-color="#49335c" stop-opacity="1"></stop></linearGradient></defs><defs><linearGradient id="grad1_6" x1="43.8%" y1="0%" x2="100%" y2="100%"><stop offset="14.444444444444446%" stop-color="#1d2540" stop-opacity="1"></stop><stop offset="85.55555555555554%" stop-color="#49335c" stop-opacity="1"></stop></linearGradient></defs><defs><linearGradient id="grad1_7" x1="43.8%" y1="0%" x2="100%" y2="100%"><stop offset="14.444444444444446%" stop-color="#1d2540" stop-opacity="1"></stop><stop offset="85.55555555555554%" stop-color="#001220" stop-opacity="1"></stop></linearGradient></defs><defs><linearGradient id="grad2_0" x1="0%" y1="0%" x2="56.3%" y2="100%"><stop offset="14.444444444444446%" stop-color="#fbae3c" stop-opacity="1"></stop><stop offset="85.55555555555554%" stop-color="#fbae3c" stop-opacity="1"></stop></linearGradient></defs><defs><linearGradient id="grad2_1" x1="0%" y1="0%" x2="56.3%" y2="100%"><stop offset="14.444444444444446%" stop-color="#f48350" stop-opacity="1"></stop><stop offset="85.55555555555554%" stop-color="#fbae3c" stop-opacity="1"></stop></linearGradient></defs><defs><linearGradient id="grad2_2" x1="0%" y1="0%" x2="56.3%" y2="100%"><stop offset="14.444444444444446%" stop-color="#f48350" stop-opacity="1"></stop><stop offset="85.55555555555554%" stop-color="#d96162" stop-opacity="1"></stop></linearGradient></defs><defs><linearGradient id="grad2_3" x1="0%" y1="0%" x2="56.3%" y2="100%"><stop offset="14.444444444444446%" stop-color="#af4b6d" stop-opacity="1"></stop><stop offset="85.55555555555554%" stop-color="#d96162" stop-opacity="1"></stop></linearGradient></defs><defs><linearGradient id="grad2_4" x1="0%" y1="0%" x2="56.3%" y2="100%"><stop offset="14.444444444444446%" stop-color="#af4b6d" stop-opacity="1"></stop><stop offset="85.55555555555554%" stop-color="#7c3e6b" stop-opacity="1"></stop></linearGradient></defs><defs><linearGradient id="grad2_5" x1="0%" y1="0%" x2="56.3%" y2="100%"><stop offset="14.444444444444446%" stop-color="#49335c" stop-opacity="1"></stop><stop offset="85.55555555555554%" stop-color="#7c3e6b" stop-opacity="1"></stop></linearGradient></defs><defs><linearGradient id="grad2_6" x1="0%" y1="0%" x2="56.3%" y2="100%"><stop offset="14.444444444444446%" stop-color="#49335c" stop-opacity="1"></stop><stop offset="85.55555555555554%" stop-color="#1d2540" stop-opacity="1"></stop></linearGradient></defs><defs><linearGradient id="grad2_7" x1="0%" y1="0%" x2="56.3%" y2="100%"><stop offset="14.444444444444446%" stop-color="#001220" stop-opacity="1"></stop><stop offset="85.55555555555554%" stop-color="#1d2540" stop-opacity="1"></stop></linearGradient></defs><g transform="translate(960, 0)"><path d="M0 432C-66.9 406.5 -133.8 381 -201 348.1C-268.2 315.3 -335.6 275.2 -374.1 216C-412.7 156.8 -422.3 78.4 -432 0L0 0Z" fill="#0c1c30"></path><path d="M0 378C-58.6 355.7 -117.1 333.3 -175.9 304.6C-234.6 275.9 -293.6 240.8 -327.4 189C-361.1 137.2 -369.5 68.6 -378 0L0 0Z" fill="#312c4f"></path><path d="M0 324C-50.2 304.9 -100.4 285.7 -150.7 261.1C-201.1 236.5 -251.7 206.4 -280.6 162C-309.5 117.6 -316.7 58.8 -324 0L0 0Z" fill="#623965"></path><path d="M0 270C-41.8 254 -83.6 238.1 -125.6 217.6C-167.6 197.1 -209.7 172 -233.8 135C-257.9 98 -264 49 -270 0L0 0Z" fill="#96446e"></path><path d="M0 216C-33.5 203.2 -66.9 190.5 -100.5 174.1C-134.1 157.7 -167.8 137.6 -187.1 108C-206.3 78.4 -211.2 39.2 -216 0L0 0Z" fill="#c55469"></path><path d="M0 162C-25.1 152.4 -50.2 142.9 -75.4 130.6C-100.6 118.2 -125.8 103.2 -140.3 81C-154.7 58.8 -158.4 29.4 -162 0L0 0Z" fill="#e9705a"></path><path d="M0 108C-16.7 101.6 -33.5 95.2 -50.2 87C-67 78.8 -83.9 68.8 -93.5 54C-103.2 39.2 -105.6 19.6 -108 0L0 0Z" fill="#fa9845"></path><path d="M0 54C-8.4 50.8 -16.7 47.6 -25.1 43.5C-33.5 39.4 -41.9 34.4 -46.8 27C-51.6 19.6 -52.8 9.8 -54 0L0 0Z" fill="#fbae3c"></path></g><g transform="translate(0, 540)"><path d="M0 -432C46.4 -370.9 92.8 -309.8 162.5 -281.5C232.2 -253.1 325.3 -257.5 374.1 -216C422.9 -174.5 427.5 -87.3 432 0L0 0Z" fill="#0c1c30"></path><path d="M0 -378C40.6 -324.5 81.2 -271.1 142.2 -246.3C203.2 -221.5 284.7 -225.3 327.4 -189C370.1 -152.7 374 -76.4 378 0L0 0Z" fill="#312c4f"></path><path d="M0 -324C34.8 -278.2 69.6 -232.4 121.9 -211.1C174.2 -189.8 244 -193.1 280.6 -162C317.2 -130.9 320.6 -65.5 324 0L0 0Z" fill="#623965"></path><path d="M0 -270C29 -231.8 58 -193.6 101.6 -175.9C145.1 -158.2 203.3 -160.9 233.8 -135C264.3 -109.1 267.2 -54.5 270 0L0 0Z" fill="#96446e"></path><path d="M0 -216C23.2 -185.5 46.4 -154.9 81.2 -140.7C116.1 -126.5 162.7 -128.7 187.1 -108C211.5 -87.3 213.7 -43.6 216 0L0 0Z" fill="#c55469"></path><path d="M0 -162C17.4 -139.1 34.8 -116.2 60.9 -105.5C87.1 -94.9 122 -96.5 140.3 -81C158.6 -65.5 160.3 -32.7 162 0L0 0Z" fill="#e9705a"></path><path d="M0 -108C11.6 -92.7 23.2 -77.5 40.6 -70.4C58.1 -63.3 81.3 -64.4 93.5 -54C105.7 -43.6 106.9 -21.8 108 0L0 0Z" fill="#fa9845"></path><path d="M0 -54C5.8 -46.4 11.6 -38.7 20.3 -35.2C29 -31.6 40.7 -32.2 46.8 -27C52.9 -21.8 53.4 -10.9 54 0L0 0Z" fill="#fbae3c"></path></g></svg>