<svg xmlns="http://www.w3.org/2000/svg" version="1.1" xmlns:xlink="http://www.w3.org/1999/xlink" xmlns:svgjs="http://svgjs.dev/svgjs" width="1440" height="560" preserveAspectRatio="none" viewBox="0 0 1440 560"><g mask="url(&quot;#SvgjsMask1006&quot;)" fill="none"><rect width="1440" height="560" x="0" y="0" fill="rgba(0, 34, 51, 1)"></rect><path d="M207.86 354.76L256.18 354.76L256.18 407.1L207.86 407.1z" fill="#e73635"></path><path d="M221.9 241.51 a43.4 43.4 0 1 0 86.8 0 a43.4 43.4 0 1 0 -86.8 0z" fill="#d3b714"></path><path d="M788.82 137.36L815.92 137.36L815.92 164.46L788.82 164.46z" fill="#e73635"></path><path d="M490.53 274.29L491.58 274.29L491.58 275.34L490.53 275.34z" stroke="#037b0b"></path><path d="M624.78 280.08 a8.07 8.07 0 1 0 16.14 0 a8.07 8.07 0 1 0 -16.14 0z" fill="#037b0b"></path><path d="M681.05 164.36 a6.54 6.54 0 1 0 13.08 0 a6.54 6.54 0 1 0 -13.08 0z" stroke="#037b0b"></path><path d="M987.13 459.23L1018.5 459.23L1018.5 490.6L987.13 490.6z" fill="#d3b714"></path><path d="M720.59 178.99 a20.27 20.27 0 1 0 40.54 0 a20.27 20.27 0 1 0 -40.54 0z" stroke="#037b0b"></path><path d="M1102.95 468.59a37.97 37.97 0 1 0-75.85 3.73z" stroke="#e73635"></path><path d="M476.21 298.86L493.09 298.86L493.09 315.74L476.21 315.74z" fill="#e73635"></path><path d="M312.93 103.05 a36.26 36.26 0 1 0 72.52 0 a36.26 36.26 0 1 0 -72.52 0z" stroke="#d3b714"></path><path d="M986.05 379.97a51.01 51.01 0 1 0-72.79-71.48z" fill="#d3b714"></path><path d="M398.19 509.42L411.32 509.42L411.32 545.92L398.19 545.92z" stroke="#d3b714"></path><path d="M784.92 457.75a28.86 28.86 0 1 0-20.13-54.09z" stroke="#e73635"></path><path d="M1013.68 408.62 a48.57 48.57 0 1 0 97.14 0 a48.57 48.57 0 1 0 -97.14 0z" stroke="#d3b714"></path><path d="M547.37 185.64L574.94 185.64L574.94 239.01L547.37 239.01z" stroke="#037b0b"></path><path d="M898.11 179.74L909.08 179.74L909.08 190.71L898.11 190.71z" fill="#037b0b"></path><path d="M1309.56 539.53L1314.7 539.53L1314.7 544.67L1309.56 544.67z" fill="#037b0b"></path><path d="M310.17 501.38L335.66 501.38L335.66 507.26L310.17 507.26z" fill="#d3b714"></path><path d="M426.84 168.02L463.22 168.02L463.22 204.4L426.84 204.4z" stroke="#037b0b"></path><path d="M924.06 60.9a0.43 0.43 0 1 0 0.34 0.79z" fill="#d3b714"></path><path d="M1126.79 122.84L1143.56 122.84L1143.56 163.15L1126.79 163.15z" fill="#037b0b"></path><path d="M223.36 69.04a36.69 36.69 0 1 0 70.78-19.36z" stroke="#d3b714"></path><path d="M549.86 1.49L558.53 1.49L558.53 10.16L549.86 10.16z" fill="#d3b714"></path><path d="M463.54 309.1a10.83 10.83 0 1 0 14.64 15.96z" fill="#037b0b"></path><path d="M28.24 60.23L53.44 60.23L53.44 85.43L28.24 85.43z" fill="#037b0b"></path><path d="M1109.18 355.6L1157.95 355.6L1157.95 404.37L1109.18 404.37z" fill="#037b0b"></path><path d="M1163.54 125.85 a27.82 27.82 0 1 0 55.64 0 a27.82 27.82 0 1 0 -55.64 0z" stroke="#d3b714"></path><path d="M446.49 219.83L470.78 219.83L470.78 244.12L446.49 244.12z" fill="#d3b714"></path><path d="M1353.03 205.74a42.88 42.88 0 1 0-78.15-35.33z" fill="#e73635"></path><path d="M1369.59 51.69 a44.89 44.89 0 1 0 89.78 0 a44.89 44.89 0 1 0 -89.78 0z" fill="#037b0b"></path><path d="M373.06 72.92L389.68 72.92L389.68 89.54L373.06 89.54z" stroke="#d3b714"></path><path d="M395.31 331.75L398.7 331.75L398.7 335.14L395.31 335.14z" stroke="#e73635"></path></g><defs><mask id="SvgjsMask1006"><rect width="1440" height="560" fill="#ffffff"></rect></mask></defs></svg>