<svg id="visual" viewBox="0 0 900 600" width="900" height="600" xmlns="http://www.w3.org/2000/svg" xmlns:xlink="http://www.w3.org/1999/xlink" version="1.1"><rect x="0" y="0" width="900" height="600" fill="#002233"></rect><path d="M0 416L21.5 424.2C43 432.3 86 448.7 128.8 460.5C171.7 472.3 214.3 479.7 257.2 475C300 470.3 343 453.7 385.8 450.3C428.7 447 471.3 457 514.2 462.2C557 467.3 600 467.7 642.8 456.7C685.7 445.7 728.3 423.3 771.2 415.5C814 407.7 857 414.3 878.5 417.7L900 421L900 601L878.5 601C857 601 814 601 771.2 601C728.3 601 685.7 601 642.8 601C600 601 557 601 514.2 601C471.3 601 428.7 601 385.8 601C343 601 300 601 257.2 601C214.3 601 171.7 601 128.8 601C86 601 43 601 21.5 601L0 601Z" fill="#FFFFFF" stroke-linecap="round" stroke-linejoin="miter"></path></svg>